<svg width="22" height="22" viewBox="0 0 22 22" fill="none" xmlns="http://www.w3.org/2000/svg">
<path d="M11.7215 13.15L11.0144 13.8571L12.4286 15.2714L13.1357 14.5642L11.7215 13.15ZM15.2857 11L15.9928 11.7071L16.6999 11L15.9928 10.2929L15.2857 11ZM13.1357 7.43575L12.4286 6.72864L11.0144 8.14286L11.7215 8.84996L13.1357 7.43575ZM13.1357 14.5642L15.9928 11.7071L14.5786 10.2929L11.7215 13.15L13.1357 14.5642ZM15.9928 10.2929L13.1357 7.43575L11.7215 8.84996L14.5786 11.7071L15.9928 10.2929ZM15.2857 10H6V12H15.2857V10ZM11 20C6.02944 20 2 15.9706 2 11H0C0 17.0751 4.92487 22 11 22V20ZM20 11C20 15.9706 15.9706 20 11 20V22C17.0751 22 22 17.0751 22 11H20ZM11 2C15.9706 2 20 6.02944 20 11H22C22 4.92487 17.0751 0 11 0V2ZM11 0C4.92487 0 0 4.92487 0 11H2C2 6.02944 6.02944 2 11 2V0Z" fill="#4598E4"/>
</svg>
