<svg width="32" height="24" viewBox="0 0 32 24" fill="none" xmlns="http://www.w3.org/2000/svg">
<path d="M32 0H0V20.2105H1.875V24H30.125V20.2105H32V0ZM30.125 5.43518C28.4895 5.04423 27.2028 3.65274 26.8573 1.89474H30.125V5.43518ZM24.9561 18.3158H7.04388C6.65163 15.5053 4.54144 13.2744 1.875 12.8452V7.36541C4.54144 6.93613 6.65163 4.7052 7.04388 1.8948H24.9562C25.3484 4.70526 27.4586 6.93619 30.1251 7.36541V12.8452C27.4586 13.2744 25.3484 15.5053 24.9561 18.3158ZM5.14269 1.89474C4.79725 3.65267 3.5105 5.04417 1.875 5.43518V1.89474H5.14269ZM1.875 14.7753C3.5105 15.1663 4.79725 16.5578 5.14269 18.3158H1.875V14.7753ZM28.25 22.1053H3.75V20.2105H28.25V22.1053ZM26.8573 18.3158C27.2028 16.5579 28.4895 15.1663 30.125 14.7753V18.3158H26.8573Z" fill="#EC1D38"/>
<path d="M6.17188 9.15789H9.29688V11.0526H6.17188V9.15789Z" fill="#EC1D38"/>
<path d="M22.7031 9.15789H25.8281V11.0526H22.7031V9.15789Z" fill="#EC1D38"/>
<path d="M15.9999 6.85665C16.7913 6.85665 17.435 7.37278 17.435 8.00726H19.31C19.31 6.62751 18.3075 5.45916 16.9374 5.08627V4.03255H15.0624V5.08627C13.6924 5.45909 12.6899 6.62745 12.6899 8.00726C12.6899 9.68644 14.1748 11.0525 15.9999 11.0525C16.7913 11.0525 17.435 11.5687 17.435 12.2031C17.435 12.8375 16.7913 13.3537 15.9999 13.3537C15.2086 13.3537 14.5649 12.8376 14.5649 12.2031H12.6899C12.6899 13.5828 13.6924 14.7512 15.0624 15.1241V16.1778H16.9374V15.1241C18.3075 14.7513 19.31 13.5829 19.31 12.2031C19.31 10.5239 17.8251 9.15781 15.9999 9.15781C15.2086 9.15781 14.5649 8.64168 14.5649 8.00726C14.5649 7.37278 15.2086 6.85665 15.9999 6.85665Z" fill="#EC1D38"/>
</svg>
