<svg width="28" height="32" viewBox="0 0 28 32" fill="none" xmlns="http://www.w3.org/2000/svg">
<path d="M6.19603e-05 24.4629H5.69951V14.7734H1.85989V14.1176C1.85989 12.7721 2.07687 11.4769 2.47643 10.2648H6.11568L6.38263 9.78833C7.93317 7.02065 10.852 5.30129 14 5.30129C17.148 5.30129 20.0668 7.02065 21.6174 9.78833L21.8844 10.2648H25.5236C25.9231 11.4768 26.1402 12.7721 26.1402 14.1176V14.7734H22.3005V24.4628H24.2203V28.3089H16.5671C16.1859 27.251 15.1791 26.4933 14 26.4933C12.4945 26.4933 11.2696 27.7285 11.2696 29.2466C11.2696 30.7648 12.4945 31.9999 14 31.9999C15.1791 31.9999 16.1859 31.2423 16.5671 30.1844H26.0802V24.4628H28V14.1176C28 10.3467 26.5438 6.80141 23.8995 4.13495C21.2553 1.46848 17.7396 0 14 0C10.2605 0 6.74474 1.46848 4.10049 4.13501C1.45625 6.80141 0 10.3467 0 14.1177L6.19603e-05 24.4629ZM3.83968 22.5875H1.85989V16.6489H3.83968V22.5875ZM14 30.1245C13.52 30.1245 13.1295 29.7308 13.1295 29.2467C13.1295 28.7626 13.52 28.3689 14 28.3689C14.48 28.3689 14.8705 28.7626 14.8705 29.2467C14.8705 29.7308 14.48 30.1245 14 30.1245ZM26.1402 22.5875H24.1603V16.6489H26.1402V22.5875ZM22.9534 8.38936C21.0149 5.31411 17.6334 3.42584 14 3.42584C10.3666 3.42584 6.98521 5.31411 5.04665 8.38936H3.27367C5.31509 4.51792 9.35699 1.87546 14 1.87546C18.6431 1.87546 22.6849 4.51792 24.7264 8.38936H22.9534Z" fill="#EC1D38"/>
<path d="M14.0017 24.8882L15.8288 22.929H19.9034V14.7777H8.09695V22.9291H12.1663L14.0017 24.8882ZM9.95678 16.6531H18.0436V21.0536H15.0248L13.9986 22.154L12.9678 21.0536H9.95678V16.6531Z" fill="#EC1D38"/>
</svg>
