<svg width="32" height="32" viewBox="0 0 32 32" fill="none" xmlns="http://www.w3.org/2000/svg">
<path d="M32 3.75H21.4375V0H10.5625V3.75H0V14.1875H1.875V32H30.125V14.1875H32V3.75ZM12.4375 1.875H19.5625V3.75H12.4375V1.875ZM3.75 30.125V28.25H28.25V30.125H3.75ZM28.25 26.375H3.75V14.1875H11.3125V17.9375H20.6875V14.1875H28.25V26.375ZM13.1875 16.0625V10.4375H18.8125V16.0625H13.1875ZM30.125 12.3125H20.6875V8.5625H11.3125V12.3125H1.875V5.625H30.125V12.3125Z" fill="#EC1D38"/>
<path d="M15.0625 12.3125H16.9375V14.1875H15.0625V12.3125Z" fill="#EC1D38"/>
</svg>
