<svg width="32" height="32" viewBox="0 0 32 32" fill="none" xmlns="http://www.w3.org/2000/svg">
<path d="M30.0469 12.7706H24.421V30.1249H22.5472V16.858H16.9212V30.1249H15.0474V13.2653H9.4215V30.1249H7.57894V20.7768H1.95306V30.1249H0V31.9999H32V30.1249H30.0469V12.7706ZM5.70294 22.6518V24.5268H3.82912V22.6518H5.70294ZM3.82912 30.1249V26.4018H5.70294V30.1249H3.82912ZM13.1714 15.1403V17.0153H11.2976V15.1403H13.1714ZM11.2976 30.1249V18.8903H13.1714V30.1249H11.2976ZM20.6711 18.733V20.608H18.7973V18.733H20.6711ZM18.7973 30.1249V22.483H20.6711V30.1249H18.7973ZM28.1709 14.6456V16.5206H26.2971V14.6456H28.1709ZM26.2971 30.1249V18.3956H28.1709V30.1249H26.2971Z" fill="#EC1D38"/>
<path d="M26.3877 0V1.875H28.7983L20.1589 10.5147L13.0017 3.35725L0.00649634 16.3529L1.33343 17.6784L13.0017 6.00975L20.1589 13.1672L30.1239 3.20181V5.621H32V0H26.3877Z" fill="#EC1D38"/>
</svg>
