<svg width="32" height="32" viewBox="0 0 32 32" fill="none" xmlns="http://www.w3.org/2000/svg">
<path d="M4.38413 12.3125H8.13808V14.1875H4.38413V12.3125Z" fill="#EC1D38"/>
<path d="M11.5868 12.3125H15.3407V14.1875H11.5868V12.3125Z" fill="#EC1D38"/>
<path d="M18.789 12.3125H22.5429V14.1875H18.789V12.3125Z" fill="#EC1D38"/>
<path d="M4.38413 17.3125H8.13808V19.1875H4.38413V17.3125Z" fill="#EC1D38"/>
<path d="M11.5868 17.3125H15.3407V19.1875H11.5868V17.3125Z" fill="#EC1D38"/>
<path d="M4.38413 22.375H8.13808V24.25H4.38413V22.375Z" fill="#EC1D38"/>
<path d="M11.5868 22.375H15.3407V24.25H11.5868V22.375Z" fill="#EC1D38"/>
<path d="M26.927 18.382V2.21644H22.5406V0H20.6656V2.21644H17.1142V0H15.2392V2.21644H11.6877V0H9.81275V2.21644H6.26131V0H4.38631V2.21644H0V28.875H19.246C20.4904 30.7563 22.6274 32 25.0501 32C28.8822 32 32 28.8879 32 25.0625C32 21.8861 29.8504 19.2015 26.927 18.382ZM4.38631 4.09144V6.42287H6.26131V4.09144H9.81275V6.42287H11.6877V4.09144H15.2392V6.42287H17.1142V4.09144H20.6656V6.42287H22.5406V4.09144H25.052V8.28512H1.875V4.09144H4.38631ZM1.875 27V10.1601H25.052V18.125C25.0514 18.125 25.0507 18.125 25.0501 18.125C21.2178 18.125 18.1001 21.2371 18.1001 25.0625C18.1001 25.7347 18.1963 26.3849 18.3758 27H1.875ZM25.0501 30.125C22.2517 30.125 19.9751 27.8539 19.9751 25.0625C19.9751 22.2711 22.2517 20 25.0501 20C27.8484 20 30.125 22.2711 30.125 25.0625C30.125 27.8539 27.8484 30.125 25.0501 30.125Z" fill="#EC1D38"/>
<path d="M25.9878 21.9491H24.1128V26H28.1636V24.125H25.9878V21.9491Z" fill="#EC1D38"/>
</svg>
