<svg width="28" height="32" viewBox="0 0 28 32" fill="none" xmlns="http://www.w3.org/2000/svg">
<path d="M14.0625 0L0.5625 2.6855V21.0675C0.5625 25.0115 2.92525 28.1594 7.3952 30.1709C10.6361 31.6292 13.8298 31.9757 13.9642 31.9897L14.0625 32L14.1609 31.9897C14.2953 31.9757 17.489 31.6292 20.7299 30.1709C25.1998 28.1593 27.5625 25.0114 27.5625 21.0675V2.6855L14.0625 0ZM25.6785 21.0675C25.6785 24.2544 23.7652 26.7371 19.9918 28.4464C17.3257 29.6543 14.6063 30.0456 14.062 30.1146C13.5193 30.0464 10.8351 29.6623 8.17179 28.4639C4.37277 26.7542 2.44647 24.2658 2.44647 21.0675V4.2215L14.0625 1.91069L25.6785 4.2215V21.0675Z" fill="#EC1D38"/>
<path d="M9.5737 10.8114C9.5737 12.1833 10.2111 13.4113 11.2094 14.2231C9.83484 15.1402 8.92833 16.6999 8.92833 18.4661V24.2374H19.1967V18.4661C19.1967 16.6999 18.2902 15.1402 16.9156 14.2231C17.9139 13.4113 18.5513 12.1833 18.5513 10.8114C18.5513 8.37279 16.5376 6.38885 14.0625 6.38885C11.5873 6.38885 9.5737 8.37279 9.5737 10.8114ZM17.3127 18.4662V22.3638H10.8124V18.4662C10.8124 16.6839 12.2704 15.2339 14.0625 15.2339C15.8547 15.2339 17.3127 16.6839 17.3127 18.4662ZM16.6674 10.8114C16.6674 12.2168 15.4989 13.3602 14.0626 13.3602C12.6263 13.3602 11.4578 12.2168 11.4578 10.8114C11.4578 9.40591 12.6263 8.26248 14.0626 8.26248C15.4989 8.26248 16.6674 9.40591 16.6674 10.8114Z" fill="#EC1D38"/>
<path d="M13.1205 17.862H15.0044V19.7356H13.1205V17.862Z" fill="#EC1D38"/>
</svg>
