<svg width="32" height="28" viewBox="0 0 32 28" fill="none" xmlns="http://www.w3.org/2000/svg">
<path d="M26.4797 14.4448L32 9.33973L22.7979 0L18.7613 4.00964L13.8457 4.6987L11.3487 3.07398L8.60906 0.352295L0 8.91648L2.95481 11.8889L4.68406 14.8929C4.55756 14.9814 4.43725 15.0807 4.3255 15.1916L2.96344 16.5425C2.452 17.0497 2.16981 17.7246 2.169 18.4428C2.16819 19.161 2.44875 19.8366 2.959 20.345C3.36575 20.7504 3.87994 21.0103 4.43775 21.0996C4.43738 21.1178 4.43638 21.136 4.43638 21.1542C4.43556 21.8724 4.71613 22.548 5.22638 23.0564C5.70294 23.5313 6.31494 23.7909 6.94012 23.8368C6.98488 24.4583 7.24463 25.0675 7.721 25.5423C8.24856 26.0679 8.94206 26.3308 9.63575 26.3308C9.89612 26.3308 10.1565 26.2936 10.4081 26.2196C10.5406 26.5877 10.7544 26.9252 11.0405 27.2102C11.5507 27.7187 12.2296 27.9992 12.9521 28C12.9532 28 12.9542 28 12.9554 28C13.6765 28 14.3549 27.7212 14.8655 27.2146L15.6302 26.4562C15.6742 26.4125 15.7158 26.3673 15.7561 26.3214L15.953 26.4942C16.4775 27.0026 17.1596 27.2568 17.8417 27.2567C18.5356 27.2567 19.2294 26.9937 19.7571 26.468C20.0463 26.18 20.2616 25.8382 20.3939 25.4655C20.6394 25.5358 20.893 25.5713 21.1467 25.5713C21.8406 25.5713 22.5345 25.3083 23.0622 24.7826C23.4056 24.4405 23.6362 24.0285 23.7554 23.5925C23.8999 23.6158 24.0459 23.6281 24.1919 23.6281C24.8858 23.6281 25.5797 23.3651 26.1074 22.8394C26.7074 22.2416 26.9647 21.431 26.8804 20.6503C27.3574 20.5403 27.81 20.3013 28.1806 19.9321C28.6911 19.4236 28.9717 18.7477 28.9711 18.0292C28.9702 17.3107 28.6881 16.6355 28.1765 16.128L26.4797 14.4448ZM22.7872 2.65607L29.3094 9.2758L28.0304 10.4555L21.5567 3.885L22.7872 2.65607ZM14.7661 6.42618L19.6366 5.77559L20.2222 5.19731L26.6698 11.7414L25.157 13.1184L20.0182 7.87407L15.5507 8.56642L12.8413 11.3091C12.4303 11.5321 11.7812 11.5204 11.3981 11.1367C11.0309 10.7689 11.0308 10.1704 11.3979 9.80244L14.7661 6.42618ZM3.62663 9.90968L2.64644 8.92369L8.60987 2.99128L9.68575 4.06003L3.62663 9.90968ZM4.87369 19.2686C4.874 19.2686 4.87337 19.2686 4.87369 19.2686C4.65269 19.2683 4.44394 19.1825 4.28781 19.027C4.13175 18.8714 4.04594 18.6647 4.04619 18.445C4.04644 18.2253 4.13281 18.0187 4.28919 17.8636L5.65125 16.5126C5.8075 16.3577 6.015 16.2724 6.23562 16.2724C6.236 16.2724 6.23631 16.2724 6.23669 16.2724C6.45769 16.2727 6.66544 16.3585 6.82156 16.5141C6.97769 16.6696 7.0635 16.8764 7.06325 17.0961C7.063 17.3156 6.97675 17.5219 6.82062 17.6771L5.45813 19.0283C5.30188 19.1832 5.09437 19.2686 4.87369 19.2686ZM6.55531 21.7383C6.39913 21.5827 6.31325 21.376 6.3135 21.1563C6.31381 20.9366 6.40013 20.73 6.55669 20.5748L8.14606 18.9984C8.30231 18.8434 8.50981 18.7582 8.73044 18.7582C8.73081 18.7582 8.73112 18.7582 8.7315 18.7582C8.9525 18.7584 9.16025 18.8443 9.31637 18.9998C9.63863 19.3209 9.63806 19.8428 9.31506 20.1632L7.72563 21.7396C7.40263 22.06 6.87762 22.0594 6.55531 21.7383ZM11.8095 22.6492L10.2201 24.2256C9.89725 24.546 9.37225 24.5453 9.05 24.2242C8.72775 23.903 8.72831 23.3811 9.05131 23.0608L10.6407 21.4844C10.9637 21.1641 11.4888 21.1647 11.8109 21.4858C11.9671 21.6414 12.0529 21.8481 12.0526 22.0678C12.0523 22.2874 11.9661 22.4939 11.8095 22.6492ZM14.3042 25.135L13.5396 25.8935C13.3833 26.0485 13.1758 26.1337 12.9552 26.1337C12.9548 26.1337 12.9545 26.1337 12.9541 26.1337C12.7331 26.1335 12.5254 26.0476 12.3693 25.8921C12.047 25.5709 12.0475 25.049 12.3706 24.7287L13.1353 23.9702C13.2966 23.8103 13.5082 23.7304 13.7198 23.7304C13.9321 23.7304 14.1442 23.8108 14.3056 23.9716C14.6279 24.2927 14.6273 24.8146 14.3042 25.135ZM26.8518 18.6139C26.5291 18.9355 26.0032 18.936 25.6798 18.6152L21.8209 14.7871L20.495 16.108L24.7773 20.3561C25.1008 20.677 25.1014 21.1997 24.7786 21.5211C24.4558 21.8427 23.9299 21.8433 23.6067 21.5224L19.3243 17.2744L17.9984 18.5953L21.7321 22.2992C21.8889 22.4547 21.9753 22.6615 21.9755 22.8815C21.9757 23.1016 21.8897 23.3086 21.7334 23.4644C21.577 23.6202 21.3691 23.706 21.1477 23.7063C21.148 23.7063 21.1474 23.7063 21.1477 23.7063C20.9267 23.7063 20.7179 23.6208 20.5614 23.4656L19.7534 22.664C19.7535 22.6641 19.7533 22.6639 19.7534 22.664L16.8277 19.7616L15.5017 21.0825L18.4276 23.9851C18.5841 24.1405 18.6702 24.3471 18.6705 24.5669C18.6707 24.787 18.5847 24.9939 18.4284 25.1498C18.272 25.3055 18.064 25.3914 17.8427 25.3917C17.843 25.3917 17.8424 25.3917 17.8427 25.3917C17.6217 25.3917 17.4129 25.3062 17.2564 25.151L16.4196 24.4151C16.3869 23.7741 16.1256 23.1426 15.6348 22.6535C15.1586 22.1791 14.5471 21.9194 13.9223 21.8733C13.8765 21.2292 13.6034 20.6295 13.14 20.1677C12.6766 19.7059 12.0739 19.433 11.4262 19.386C11.3812 18.7649 11.1214 18.1562 10.6454 17.6819C10.1823 17.2204 9.58012 16.9476 8.93287 16.9003C8.88675 16.2566 8.61369 15.6575 8.15069 15.1961C7.72156 14.7685 7.173 14.5029 6.57969 14.4285L4.81544 11.3635L11.1952 5.20427L12.4967 6.05115L10.0652 8.48838C8.97506 9.58112 8.97531 11.3588 10.0659 12.4512C11.1691 13.5563 12.9059 13.5084 13.9476 12.8234L14.0301 12.7692L16.4544 10.3152L19.35 9.86644L26.8507 17.4489C27.0074 17.6044 27.0938 17.8112 27.094 18.0312C27.0941 18.2512 27.0081 18.4581 26.8518 18.6139Z" fill="#EC1D38"/>
</svg>
