<svg width="32" height="28" viewBox="0 0 32 28" fill="none" xmlns="http://www.w3.org/2000/svg">
<path d="M3.95312 3.6049H5.82812V5.43092H3.95312V3.6049Z" fill="#EC1D38"/>
<path d="M8.04173 3.6049H9.91673V5.43092H8.04173V3.6049Z" fill="#EC1D38"/>
<path d="M3.95312 10.8008H5.82812V12.6269H3.95312V10.8008Z" fill="#EC1D38"/>
<path d="M8.04173 10.8008H9.91673V12.6269H8.04173V10.8008Z" fill="#EC1D38"/>
<path d="M3.95312 17.9968H5.82812V19.8228H3.95312V17.9968Z" fill="#EC1D38"/>
<path d="M8.04173 17.9968H9.91673V19.8228H8.04173V17.9968Z" fill="#EC1D38"/>
<path d="M26.7194 4.6907V0H0V23.4277H12.4222V26.1601H0V28H26.7222V26.1601H14.2972V23.4277H26.7194V19.6119C28.1306 19.1367 29.3899 18.2681 30.3186 17.1148C31.4028 15.7683 32 14.0817 32 12.3655V7.40899L26.7194 4.6907ZM1.875 1.83987H24.8444V4.6907L19.9775 7.19593H1.875V1.83987ZM1.875 9.03581H19.5637V12.3655C19.5637 13.0525 19.6609 13.7343 19.8452 14.3919H1.875V9.03581ZM1.875 21.5879V16.2318H20.6336C20.8161 16.5388 21.0193 16.8345 21.2451 17.1148C22.1737 18.2681 23.4331 19.1367 24.8444 19.612V21.5879L1.875 21.5879ZM30.125 12.3655C30.125 14.9999 28.3502 17.2754 25.7818 17.9736C23.2134 17.2754 21.4387 14.9999 21.4387 12.3655V8.5215L25.7819 6.28581L30.125 8.5215V12.3655Z" fill="#EC1D38"/>
<path d="M24.0612 11.0169L22.7441 12.3265L25.2906 14.7924L28.8242 11.3251L27.4984 10.0241L25.2819 12.199L24.0612 11.0169Z" fill="#EC1D38"/>
</svg>
