<svg width="32" height="26" viewBox="0 0 32 26" fill="none" xmlns="http://www.w3.org/2000/svg">
<path d="M28.2395 4.27542V0.511963H0V21.7485H3.448V25.512H32V4.27542H28.2395ZM1.875 2.38875H26.3645V4.25015H1.875V2.38875ZM1.875 6.12694H26.3645V8.00372H1.875V6.12694ZM1.875 19.8718V9.88051H26.3645V19.8718H1.875ZM30.125 23.6352H5.323V21.7486H28.2395V6.15221H30.125V23.6352Z" fill="#EC1D38"/>
<path d="M15.9915 15.8331L15.999 13.9563L23.8793 13.9879L23.8718 15.8647L15.9915 15.8331Z" fill="#EC1D38"/>
<path d="M4.43091 13.9554H6.30591V15.8322H4.43091V13.9554Z" fill="#EC1D38"/>
<path d="M8.18091 13.9554H10.0559V15.8322H8.18091V13.9554Z" fill="#EC1D38"/>
</svg>
