<svg width="219" height="60" viewBox="0 0 219 60" fill="none" xmlns="http://www.w3.org/2000/svg">
<path d="M23.5032 29.2232V36.6665H20.4966V23.6499H22.8432L28.9116 31.2949V23.6499H31.9182V36.6665H29.4982L23.5032 29.2232Z" fill="#1C221F"/>
<path d="M38.994 36.8499C38.1751 36.8499 37.4418 36.7154 36.794 36.4465C36.1585 36.1776 35.6207 35.8171 35.1807 35.3649C34.7407 34.9004 34.4046 34.3687 34.1724 33.7699C33.9524 33.1587 33.8424 32.5232 33.8424 31.8632C33.8424 31.2032 33.9524 30.5738 34.1724 29.9749C34.4046 29.3638 34.7407 28.8321 35.1807 28.3799C35.6207 27.9154 36.1585 27.5488 36.794 27.2799C37.4418 26.9988 38.1751 26.8582 38.994 26.8582C39.8129 26.8582 40.5401 26.9988 41.1757 27.2799C41.8113 27.5488 42.349 27.9154 42.789 28.3799C43.229 28.8321 43.5651 29.3638 43.7974 29.9749C44.0296 30.5738 44.1457 31.2032 44.1457 31.8632C44.1457 32.5232 44.0296 33.1587 43.7974 33.7699C43.5774 34.3687 43.2474 34.9004 42.8074 35.3649C42.3674 35.8171 41.8235 36.1776 41.1757 36.4465C40.5401 36.7154 39.8129 36.8499 38.994 36.8499ZM36.849 31.8632C36.849 32.621 37.0507 33.2321 37.454 33.6965C37.8574 34.1487 38.3707 34.3749 38.994 34.3749C39.2996 34.3749 39.5807 34.3137 39.8374 34.1915C40.094 34.0693 40.314 33.8982 40.4974 33.6782C40.6929 33.4582 40.8457 33.1954 40.9557 32.8899C41.0657 32.5721 41.1207 32.2299 41.1207 31.8632C41.1207 31.1054 40.919 30.5004 40.5157 30.0482C40.1124 29.5838 39.6051 29.3515 38.994 29.3515C38.6885 29.3515 38.4013 29.4126 38.1324 29.5349C37.8757 29.6571 37.6496 29.8282 37.454 30.0482C37.2707 30.2682 37.124 30.5371 37.014 30.8549C36.904 31.1604 36.849 31.4965 36.849 31.8632Z" fill="#1C221F"/>
<path d="M48.1203 36.6665L44.7103 27.0415H47.7353L49.8436 34.3199L51.9703 27.0415H54.702L51.3103 36.6665H48.1203Z" fill="#1C221F"/>
<path d="M58.6797 36.8499C58.203 36.8499 57.7569 36.7765 57.3414 36.6299C56.938 36.471 56.5897 36.2571 56.2964 35.9882C56.003 35.7071 55.7708 35.3832 55.5997 35.0165C55.4286 34.6376 55.343 34.2282 55.343 33.7882C55.343 33.3115 55.4408 32.8776 55.6364 32.4865C55.8442 32.0954 56.1314 31.7593 56.498 31.4782C56.8647 31.1971 57.2986 30.9771 57.7997 30.8182C58.3008 30.6593 58.8569 30.5799 59.468 30.5799C59.8714 30.5799 60.2625 30.6165 60.6414 30.6899C61.0203 30.751 61.3503 30.8487 61.6314 30.9832V30.5432C61.6314 29.431 60.9897 28.8749 59.7064 28.8749C59.1808 28.8749 58.6797 28.9665 58.203 29.1499C57.7264 29.321 57.2253 29.5838 56.6997 29.9382L55.838 28.1049C56.4736 27.6893 57.1336 27.3776 57.818 27.1699C58.5025 26.9621 59.2297 26.8582 59.9997 26.8582C61.4542 26.8582 62.5786 27.2004 63.373 27.8849C64.1675 28.5693 64.5647 29.5715 64.5647 30.8915V33.3665C64.5647 33.6599 64.6075 33.8676 64.693 33.9899C64.7908 34.0999 64.9558 34.1671 65.188 34.1915V36.6665C64.9314 36.7276 64.6991 36.7643 64.4914 36.7765C64.2836 36.801 64.0941 36.8132 63.923 36.8132C63.373 36.8132 62.9575 36.7093 62.6764 36.5015C62.3953 36.2815 62.218 35.976 62.1447 35.5849L62.0897 35.1449C61.6619 35.6949 61.1486 36.1165 60.5497 36.4099C59.963 36.7032 59.3397 36.8499 58.6797 36.8499ZM59.5414 34.7415C59.8592 34.7415 60.1647 34.6865 60.458 34.5765C60.7636 34.4665 61.0141 34.3199 61.2097 34.1365C61.4908 33.9165 61.6314 33.6843 61.6314 33.4399V32.5232C61.3747 32.4254 61.0936 32.3521 60.788 32.3032C60.4947 32.2421 60.2197 32.2115 59.963 32.2115C59.4253 32.2115 58.9792 32.3337 58.6247 32.5782C58.2825 32.8226 58.1114 33.1404 58.1114 33.5315C58.1114 33.886 58.2458 34.1793 58.5147 34.4115C58.7836 34.6315 59.1258 34.7415 59.5414 34.7415Z" fill="#1C221F"/>
<path d="M82.2075 36.6665V28.8749L79.3842 34.5399H77.7708L74.9475 28.8749V36.6665H71.9408V23.6499H75.2042L78.5775 30.4515L81.9692 23.6499H85.2142V36.6665H82.2075Z" fill="#1C221F"/>
<path d="M92.3186 36.8499C91.5119 36.8499 90.7847 36.7215 90.1369 36.4649C89.5014 36.196 88.9575 35.8354 88.5053 35.3832C88.0653 34.931 87.7292 34.4115 87.4969 33.8249C87.2647 33.226 87.1486 32.6026 87.1486 31.9549C87.1486 31.2582 87.2647 30.6043 87.4969 29.9932C87.7292 29.3699 88.0653 28.826 88.5053 28.3615C88.9453 27.8971 89.4831 27.5304 90.1186 27.2615C90.7664 26.9926 91.4997 26.8582 92.3186 26.8582C93.1375 26.8582 93.8647 26.9926 94.5003 27.2615C95.1358 27.5304 95.6736 27.8971 96.1136 28.3615C96.5536 28.8138 96.8836 29.3393 97.1036 29.9382C97.3358 30.5371 97.4519 31.1665 97.4519 31.8265C97.4519 31.9976 97.4458 32.1687 97.4336 32.3399C97.4214 32.4987 97.403 32.6393 97.3786 32.7615H90.2653C90.3142 33.4093 90.5464 33.9043 90.9619 34.2465C91.3897 34.5765 91.8725 34.7415 92.4103 34.7415C92.8381 34.7415 93.2475 34.6376 93.6386 34.4299C94.0419 34.2221 94.3108 33.941 94.4453 33.5865L96.9386 34.2832C96.5597 35.041 95.973 35.6582 95.1786 36.1349C94.3842 36.6115 93.4308 36.8499 92.3186 36.8499ZM94.3536 30.9465C94.2925 30.3354 94.0725 29.8526 93.6936 29.4982C93.3147 29.1438 92.8442 28.9665 92.2819 28.9665C91.7075 28.9665 91.2308 29.1499 90.8519 29.5165C90.4853 29.871 90.2714 30.3476 90.2103 30.9465H94.3536Z" fill="#1C221F"/>
<path d="M103.145 36.8499C102.485 36.8499 101.874 36.7276 101.311 36.4832C100.761 36.2265 100.285 35.8721 99.8814 35.4199C99.4781 34.9676 99.1603 34.4421 98.9281 33.8432C98.7081 33.2321 98.5981 32.566 98.5981 31.8449C98.5981 31.1482 98.702 30.4943 98.9097 29.8832C99.1175 29.2721 99.4108 28.7465 99.7897 28.3065C100.169 27.8543 100.615 27.4999 101.128 27.2432C101.654 26.9865 102.228 26.8582 102.851 26.8582C103.524 26.8582 104.129 27.0171 104.666 27.3349C105.216 27.6526 105.638 28.0804 105.931 28.6182V23.2832H108.865V33.3665C108.865 33.6599 108.907 33.8676 108.993 33.9899C109.091 34.0999 109.256 34.1671 109.488 34.1915V36.6665C109.219 36.7276 108.987 36.7643 108.791 36.7765C108.596 36.801 108.412 36.8132 108.241 36.8132C107.728 36.8132 107.312 36.7093 106.995 36.5015C106.677 36.2815 106.494 35.9699 106.445 35.5665L106.39 35.0715C106.047 35.6704 105.583 36.1165 104.996 36.4099C104.422 36.7032 103.805 36.8499 103.145 36.8499ZM103.933 34.3749C104.336 34.3749 104.721 34.2587 105.088 34.0265C105.467 33.7821 105.754 33.4521 105.95 33.0365V31.0199C105.766 30.531 105.467 30.1338 105.051 29.8282C104.648 29.5104 104.226 29.3515 103.786 29.3515C103.469 29.3515 103.175 29.4249 102.906 29.5715C102.65 29.706 102.424 29.8893 102.228 30.1215C102.033 30.3538 101.88 30.6226 101.77 30.9282C101.672 31.2337 101.623 31.5576 101.623 31.8999C101.623 32.2543 101.678 32.5843 101.788 32.8899C101.91 33.1954 102.069 33.4582 102.265 33.6782C102.472 33.8982 102.717 34.0693 102.998 34.1915C103.291 34.3137 103.603 34.3749 103.933 34.3749Z" fill="#1C221F"/>
<path d="M116.394 36.6665V23.6499H119.401V36.6665H116.394Z" fill="#1C221F"/>
<path d="M131.296 36.6665H128.362V31.2582C128.362 30.6226 128.24 30.1643 127.996 29.8832C127.763 29.5899 127.452 29.4432 127.061 29.4432C126.853 29.4432 126.645 29.486 126.437 29.5715C126.229 29.6571 126.028 29.7793 125.832 29.9382C125.637 30.0849 125.459 30.2621 125.301 30.4699C125.154 30.6776 125.038 30.9037 124.952 31.1482V36.6665H122.019V27.0415H124.659V28.6549C125.013 28.0804 125.514 27.6404 126.162 27.3349C126.81 27.0171 127.556 26.8582 128.399 26.8582C129.022 26.8582 129.523 26.9743 129.902 27.2065C130.281 27.4265 130.574 27.7199 130.782 28.0865C130.99 28.441 131.124 28.8321 131.186 29.2599C131.259 29.6876 131.296 30.1032 131.296 30.5065V36.6665Z" fill="#1C221F"/>
<path d="M135.89 36.6665L132.48 27.0415H135.505L137.613 34.3199L139.74 27.0415H142.471L139.08 36.6665H135.89Z" fill="#1C221F"/>
<path d="M148.229 36.8499C147.423 36.8499 146.696 36.7215 146.048 36.4649C145.412 36.196 144.868 35.8354 144.416 35.3832C143.976 34.931 143.64 34.4115 143.408 33.8249C143.176 33.226 143.059 32.6026 143.059 31.9549C143.059 31.2582 143.176 30.6043 143.408 29.9932C143.64 29.3699 143.976 28.826 144.416 28.3615C144.856 27.8971 145.394 27.5304 146.029 27.2615C146.677 26.9926 147.411 26.8582 148.229 26.8582C149.048 26.8582 149.776 26.9926 150.411 27.2615C151.047 27.5304 151.584 27.8971 152.024 28.3615C152.464 28.8138 152.794 29.3393 153.014 29.9382C153.247 30.5371 153.363 31.1665 153.363 31.8265C153.363 31.9976 153.357 32.1687 153.344 32.3399C153.332 32.4987 153.314 32.6393 153.289 32.7615H146.176C146.225 33.4093 146.457 33.9043 146.873 34.2465C147.301 34.5765 147.783 34.7415 148.321 34.7415C148.749 34.7415 149.158 34.6376 149.549 34.4299C149.953 34.2221 150.222 33.941 150.356 33.5865L152.849 34.2832C152.471 35.041 151.884 35.6582 151.089 36.1349C150.295 36.6115 149.342 36.8499 148.229 36.8499ZM150.264 30.9465C150.203 30.3354 149.983 29.8526 149.604 29.4982C149.226 29.1438 148.755 28.9665 148.193 28.9665C147.618 28.9665 147.142 29.1499 146.763 29.5165C146.396 29.871 146.182 30.3476 146.121 30.9465H150.264Z" fill="#1C221F"/>
<path d="M158.854 36.8499C158.035 36.8499 157.228 36.7215 156.434 36.4649C155.639 36.196 154.967 35.811 154.417 35.3099L155.462 33.5132C156.049 33.9165 156.617 34.2282 157.167 34.4482C157.729 34.6682 158.267 34.7782 158.781 34.7782C159.159 34.7782 159.453 34.711 159.661 34.5765C159.868 34.4421 159.972 34.2465 159.972 33.9899C159.972 33.7332 159.838 33.5315 159.569 33.3849C159.312 33.226 158.854 33.061 158.194 32.8899C157.546 32.7065 156.996 32.5293 156.544 32.3582C156.104 32.1871 155.743 31.9976 155.462 31.7899C155.181 31.5821 154.979 31.3437 154.857 31.0749C154.735 30.806 154.674 30.4882 154.674 30.1215C154.674 29.6326 154.772 29.1865 154.967 28.7832C155.163 28.3799 155.432 28.0376 155.774 27.7565C156.116 27.4754 156.519 27.2554 156.984 27.0965C157.461 26.9376 157.974 26.8582 158.524 26.8582C159.245 26.8582 159.917 26.956 160.541 27.1515C161.176 27.3471 161.787 27.7015 162.374 28.2149L161.237 29.9749C160.687 29.596 160.198 29.321 159.771 29.1499C159.343 28.9788 158.927 28.8932 158.524 28.8932C158.206 28.8932 157.937 28.9604 157.717 29.0949C157.497 29.2171 157.387 29.4188 157.387 29.6999C157.387 29.9688 157.503 30.1704 157.736 30.3049C157.98 30.4393 158.426 30.586 159.074 30.7449C159.758 30.9282 160.333 31.1115 160.797 31.2949C161.274 31.4782 161.659 31.686 161.952 31.9182C162.246 32.1382 162.459 32.3949 162.594 32.6882C162.728 32.9815 162.796 33.3299 162.796 33.7332C162.796 34.6865 162.441 35.4443 161.732 36.0065C161.023 36.5687 160.064 36.8499 158.854 36.8499Z" fill="#1C221F"/>
<path d="M170.808 36.1532C170.404 36.3243 169.94 36.4832 169.414 36.6299C168.901 36.7765 168.382 36.8499 167.856 36.8499C167.489 36.8499 167.141 36.801 166.811 36.7032C166.493 36.6176 166.212 36.4771 165.968 36.2815C165.723 36.0737 165.528 35.8049 165.381 35.4749C165.247 35.1449 165.179 34.7476 165.179 34.2832V29.2599H163.951V27.0415H165.179V23.9799H168.113V27.0415H170.074V29.2599H168.113V33.2749C168.113 33.5926 168.192 33.8249 168.351 33.9715C168.51 34.106 168.712 34.1732 168.956 34.1732C169.176 34.1732 169.402 34.1365 169.634 34.0632C169.867 33.9899 170.068 33.9104 170.239 33.8249L170.808 36.1532Z" fill="#1C221F"/>
<path d="M187.534 36.6665H184.601V31.2582C184.601 30.6226 184.484 30.1643 184.252 29.8832C184.02 29.5899 183.721 29.4432 183.354 29.4432C183.158 29.4432 182.957 29.486 182.749 29.5715C182.553 29.6571 182.37 29.7793 182.199 29.9382C182.028 30.0849 181.869 30.2621 181.722 30.4699C181.588 30.6776 181.478 30.9037 181.392 31.1482V36.6665H178.459V31.2582C178.459 30.6226 178.343 30.1643 178.111 29.8832C177.878 29.5899 177.579 29.4432 177.212 29.4432C176.821 29.4432 176.436 29.6021 176.057 29.9199C175.691 30.2254 175.422 30.6349 175.251 31.1482V36.6665H172.317V27.0415H174.957V28.6549C175.312 28.0682 175.788 27.6221 176.387 27.3165C176.998 27.011 177.707 26.8582 178.514 26.8582C178.917 26.8582 179.266 26.9071 179.559 27.0049C179.865 27.1026 180.127 27.2371 180.347 27.4082C180.567 27.5793 180.745 27.781 180.879 28.0132C181.013 28.2332 181.111 28.4715 181.172 28.7282C181.539 28.1293 182.022 27.671 182.621 27.3532C183.22 27.0232 183.904 26.8582 184.674 26.8582C185.285 26.8582 185.774 26.9743 186.141 27.2065C186.52 27.4265 186.813 27.7199 187.021 28.0865C187.228 28.441 187.363 28.8321 187.424 29.2599C187.497 29.6876 187.534 30.1032 187.534 30.5065V36.6665Z" fill="#1C221F"/>
<path d="M194.419 36.8499C193.613 36.8499 192.885 36.7215 192.238 36.4649C191.602 36.196 191.058 35.8354 190.606 35.3832C190.166 34.931 189.83 34.4115 189.598 33.8249C189.365 33.226 189.249 32.6026 189.249 31.9549C189.249 31.2582 189.365 30.6043 189.598 29.9932C189.83 29.3699 190.166 28.826 190.606 28.3615C191.046 27.8971 191.584 27.5304 192.219 27.2615C192.867 26.9926 193.6 26.8582 194.419 26.8582C195.238 26.8582 195.965 26.9926 196.601 27.2615C197.237 27.5304 197.774 27.8971 198.214 28.3615C198.654 28.8138 198.984 29.3393 199.204 29.9382C199.437 30.5371 199.553 31.1665 199.553 31.8265C199.553 31.9976 199.547 32.1687 199.534 32.3399C199.522 32.4987 199.504 32.6393 199.479 32.7615H192.366C192.415 33.4093 192.647 33.9043 193.063 34.2465C193.49 34.5765 193.973 34.7415 194.511 34.7415C194.939 34.7415 195.348 34.6376 195.739 34.4299C196.143 34.2221 196.412 33.941 196.546 33.5865L199.039 34.2832C198.66 35.041 198.074 35.6582 197.279 36.1349C196.485 36.6115 195.532 36.8499 194.419 36.8499ZM196.454 30.9465C196.393 30.3354 196.173 29.8526 195.794 29.4982C195.415 29.1438 194.945 28.9665 194.383 28.9665C193.808 28.9665 193.332 29.1499 192.953 29.5165C192.586 29.871 192.372 30.3476 192.311 30.9465H196.454Z" fill="#1C221F"/>
<path d="M210.525 36.6665H207.592V31.2582C207.592 30.6226 207.47 30.1643 207.225 29.8832C206.993 29.5899 206.682 29.4432 206.29 29.4432C206.083 29.4432 205.875 29.486 205.667 29.5715C205.459 29.6571 205.258 29.7793 205.062 29.9382C204.867 30.0849 204.689 30.2621 204.53 30.4699C204.384 30.6776 204.268 30.9037 204.182 31.1482V36.6665H201.249V27.0415H203.889V28.6549C204.243 28.0804 204.744 27.6404 205.392 27.3349C206.04 27.0171 206.785 26.8582 207.629 26.8582C208.252 26.8582 208.753 26.9743 209.132 27.2065C209.511 27.4265 209.804 27.7199 210.012 28.0865C210.22 28.441 210.354 28.8321 210.415 29.2599C210.489 29.6876 210.525 30.1032 210.525 30.5065V36.6665Z" fill="#1C221F"/>
<path d="M218.985 36.1532C218.582 36.3243 218.117 36.4832 217.592 36.6299C217.078 36.7765 216.559 36.8499 216.033 36.8499C215.667 36.8499 215.318 36.801 214.988 36.7032C214.67 36.6176 214.389 36.4771 214.145 36.2815C213.9 36.0737 213.705 35.8049 213.558 35.4749C213.424 35.1449 213.357 34.7476 213.357 34.2832V29.2599H212.128V27.0415H213.357V23.9799H216.29V27.0415H218.252V29.2599H216.29V33.2749C216.29 33.5926 216.369 33.8249 216.528 33.9715C216.687 34.106 216.889 34.1732 217.133 34.1732C217.353 34.1732 217.579 34.1365 217.812 34.0632C218.044 33.9899 218.245 33.9104 218.417 33.8249L218.985 36.1532Z" fill="#1C221F"/>
<path d="M9.07502 41.9588C8.38547 42.2758 8.08068 43.0936 8.42898 43.7679C11.3577 49.438 16.0255 54.0382 21.7653 56.8819C27.9164 59.9292 34.9266 60.7749 41.626 59.2778C48.3253 57.7807 54.3086 54.0313 58.5773 48.6553C60.0899 46.7504 61.3548 44.6821 62.3549 42.5H59.2988C58.4922 44.0626 57.5315 45.5526 56.4249 46.9462C52.5473 51.8296 47.1121 55.2355 41.0266 56.5955C34.941 57.9555 28.573 57.1873 22.9854 54.4191C17.8092 51.8547 13.5927 47.7176 10.929 42.6183C10.5775 41.9456 9.76458 41.6417 9.07502 41.9588Z" fill="#26BC62"/>
<path d="M60.7467 20.8333H63.6483C62.4978 17.2482 60.6744 13.8857 58.2475 10.9367C53.8855 5.63624 47.8375 1.99204 41.113 0.612281C34.3885 -0.76748 27.3942 0.200663 21.2973 3.35514C15.6081 6.29871 11.0214 10.9799 8.1923 16.7003C7.85585 17.3806 8.17489 18.1929 8.86989 18.4979C9.56489 18.8028 10.3724 18.4847 10.712 17.806C13.2862 12.6609 17.4297 8.45073 22.5603 5.79621C28.0986 2.93073 34.4521 2.05128 40.5606 3.30464C46.669 4.55799 52.1629 7.86832 56.1253 12.6832C58.1393 15.1305 59.6958 17.8913 60.7467 20.8333Z" fill="#26BC62"/>
<path fill-rule="evenodd" clip-rule="evenodd" d="M7.16666 24.1665C7.85701 24.1665 8.41666 24.7261 8.41666 25.4165V29.5832H12.5833C13.2737 29.5832 13.8333 30.1428 13.8333 30.8332C13.8333 31.5235 13.2737 32.0832 12.5833 32.0832H8.41666V36.2498C8.41666 36.9402 7.85701 37.4998 7.16666 37.4998C6.4763 37.4998 5.91666 36.9402 5.91666 36.2498V32.0832H1.75C1.05964 32.0832 0.5 31.5235 0.5 30.8332C0.5 30.1428 1.05964 29.5832 1.75 29.5832H5.91666V25.4165C5.91666 24.7261 6.4763 24.1665 7.16666 24.1665Z" fill="#EC1D38"/>
</svg>
